<?xml version="1.0" encoding="UTF-8" standalone="no"?>
<!-- Created with Inkscape (http://www.inkscape.org/) -->

<svg
   xmlns:dc="http://purl.org/dc/elements/1.1/"
   xmlns:cc="http://creativecommons.org/ns#"
   xmlns:rdf="http://www.w3.org/1999/02/22-rdf-syntax-ns#"
   xmlns:svg="http://www.w3.org/2000/svg"
   xmlns="http://www.w3.org/2000/svg"
   xmlns:xlink="http://www.w3.org/1999/xlink"
   xmlns:sodipodi="http://sodipodi.sourceforge.net/DTD/sodipodi-0.dtd"
   xmlns:inkscape="http://www.inkscape.org/namespaces/inkscape"
   id="svg2"
   version="1.1"
   inkscape:version="0.91 r13725"
   xml:space="preserve"
   width="800"
   height="800"
   viewBox="0 0 800 800"
   sodipodi:docname="Logo Ville Grenoble.svg"><metadata
     id="metadata8"><rdf:RDF><cc:Work
         rdf:about=""><dc:format>image/svg+xml</dc:format><dc:type
           rdf:resource="http://purl.org/dc/dcmitype/StillImage" /><dc:title /></cc:Work></rdf:RDF></metadata><defs
     id="defs6" /><sodipodi:namedview
     pagecolor="#ffffff"
     bordercolor="#666666"
     borderopacity="1"
     objecttolerance="10"
     gridtolerance="10"
     guidetolerance="10"
     inkscape:pageopacity="0"
     inkscape:pageshadow="2"
     inkscape:window-width="1440"
     inkscape:window-height="790"
     id="namedview4"
     showgrid="false"
     inkscape:zoom="0.69801426"
     inkscape:cx="185.31452"
     inkscape:cy="339.18724"
     inkscape:window-x="0"
     inkscape:window-y="1"
     inkscape:window-maximized="1"
     inkscape:current-layer="g10" /><g
     id="g10"
     inkscape:groupmode="layer"
     inkscape:label="Logo"
     transform="matrix(1.25,0,0,-1.25,0,800)"><g
       id="g3547"><path
         inkscape:connector-curvature="0"
         id="path6404"
         d="M 314.27051,639.94653 C 137.51716,636.74944 -3.1191069,490.93367 0.05260831,314.23096 3.2370104,137.54094 149.06144,-3.1191404 325.82747,0.0525769 502.47933,3.2623548 643.15594,149.1035 639.94616,325.76815 636.73638,502.47086 490.93504,643.14362 314.27051,639.94653 Z"
         style="fill:#175f83;fill-opacity:1;fill-rule:nonzero;stroke:none" /><path
         id="path6390"
         d="m 316.78796,497.67522 c 99.27469,1.80154 181.20643,-77.26392 183.00797,-176.52598 1.80153,-99.27475 -77.26362,-181.24626 -176.52562,-183.0478 -99.33812,-1.76347 -181.27862,77.26557 -183.06747,176.5657 -1.77616,99.28743 77.25968,181.23192 176.58512,183.00808 z"
         style="fill:#ffffff;fill-opacity:1;fill-rule:nonzero;stroke:none"
         inkscape:connector-curvature="0" /></g><g
       id="g3511"><g
         transform="matrix(12.686861,0,0,12.686869,-1648.3671,-1994.1956)"
         style="fill:#ffffff"
         id="g6410"><path
           style="fill:#ffffff;fill-opacity:1;fill-rule:nonzero;stroke:none"
           d="m 155.85625,205.05869 4.17188,-0.57656 -0.15626,-1.125 -0.1,0.0859 c -0.307,0.261 -0.68193,0.40981 -1.21093,0.48281 -0.264,0.037 -0.60176,0.0474 -0.99376,0.0344 l -0.20936,-1.52656 1.72812,-0.23907 -0.15156,-1.1078 -0.10625,0.14062 c -0.159,0.212 -0.49063,0.26706 -1.01563,0.33906 l -0.5625,0.0781 -0.27187,-1.975 c 0.488,-0.132 0.90369,-0.22306 1.20469,-0.26406 0.71,-0.1 1.34318,-0.0287 1.99218,0.22031 l 0.19687,0.075 -0.78281,-1.31093 -4.55781,0.63124 0.19375,0.10469 c 0.399,0.22 0.46187,0.49826 0.52187,0.93126 l 0.525,3.81562 c 0.059,0.434 0.0709,0.71869 -0.25312,1.02969 l -0.1625,0.15625 z"
           id="path6402"
           inkscape:connector-curvature="0" /><path
           style="fill:#ffffff;fill-opacity:1;fill-rule:nonzero;stroke:none"
           d="m 150.87031,204.53369 -0.15625,-0.16719 c -0.307,-0.32699 -0.27931,-0.61063 -0.19531,-1.04063 l 0.77812,-3.99218 c 0.523,0.038 0.94007,0.0842 1.23907,0.14218 0.694,0.136 1.2865,0.41569 1.8125,0.85469 l 0.1625,0.13438 -0.31719,-1.49376 -4.51875,-0.87968 0.14844,0.16406 c 0.306,0.335 0.27674,0.62 0.19374,1.05 l -0.73593,3.77813 c -0.083,0.43 -0.16287,0.70518 -0.57187,0.89218 l -0.20625,0.0937 2.36718,0.46407 z"
           id="path6400"
           inkscape:connector-curvature="0" /><path
           style="fill:#ffffff;fill-opacity:1;fill-rule:nonzero;stroke:none"
           d="m 143.93594,201.95244 -0.0922,-0.20626 c -0.184,-0.409 -0.0659,-0.66843 0.15312,-1.04843 l 2.03438,-3.52031 c 0.484,0.205 0.864,0.3855 1.125,0.5375 0.613,0.353 1.08193,0.80988 1.43593,1.39688 l 0.10938,0.17968 0.1875,-1.51563 -3.98593,-2.30312 0.0859,0.20469 c 0.18,0.417 0.0602,0.67825 -0.15781,1.05625 l -1.92656,3.33281 c -0.218,0.378 -0.38269,0.61437 -0.82969,0.65937 l -0.225,0.0219 2.08594,1.20469 z"
           id="path6398"
           inkscape:connector-curvature="0" /><path
           style="fill:#ffffff;fill-opacity:1;fill-rule:nonzero;stroke:none"
           d="m 209.80273,705.00586 0.0586,0.27734 c 0.1125,0.54625 -0.11258,0.82282 -0.48633,1.22657 l -3.26172,3.53711 c -0.3825,0.41499 -0.64266,0.65109 -1.1914,0.58984 l -0.2754,-0.0312 2.17579,2.00781 c 1.60625,1.48125 2.80125,2.08961 4.125,2.09961 l 0.0391,0 c 1.05875,0 1.94914,-0.38523 2.65039,-1.14648 0.7875,-0.85625 1.03351,-1.91821 0.72851,-3.15821 -0.31125,-1.28375 -1.05406,-2.17047 -2.07031,-3.10547 l -2.49219,-2.29687 z m 0.94532,2.36133 c 0.375,0.22625 0.71828,0.47906 1.01953,0.75781 0.76,0.69875 1.21515,1.49086 1.3164,2.28711 0.0975,0.7775 -0.14453,1.50898 -0.70703,2.11523 -0.52625,0.57375 -1.21367,0.875 -1.98242,0.875 -0.8375,0 -1.69476,-0.365 -2.41601,-1.03125 -0.2325,-0.21375 -0.53688,-0.54375 -0.92188,-1 l 3.69141,-4.0039 z"
           transform="matrix(0.8,0,0,-0.8,0,765.354)"
           id="path6396"
           inkscape:connector-curvature="0" /><path
           style="fill:#ffffff;fill-opacity:1;fill-rule:nonzero;stroke:none"
           d="m 140.01875,199.14462 -0.0344,-0.22344 c -0.072,-0.443 0.11187,-0.66231 0.42187,-0.97031 l 2.72969,-2.71562 c 0.299,-0.296 0.53624,-0.48943 0.98124,-0.42343 l 0.21876,0.0344 -1.69063,-1.70468 0.0312,0.22032 c 0.065,0.451 -0.11969,0.66956 -0.42969,0.97656 l -2.72969,2.71562 c -0.298,0.297 -0.53787,0.49018 -0.97187,0.41718 l -0.22344,-0.0375 1.69688,1.71093 z"
           id="path6392"
           inkscape:connector-curvature="0" /><path
           style="fill:#ffffff;fill-opacity:1;fill-rule:nonzero;stroke:none"
           d="m 136.71094,195.75869 4.15624,-5.53125 -0.0359,-0.0437 c -0.352,-0.421 -0.8185,-0.61094 -1.5125,-0.61094 -0.139,0 -0.28544,0.007 -0.44844,0.0234 l -3.73593,0.32969 c -0.174,0.017 -0.37788,0.0328 -0.59688,0.0328 -0.265,0 -0.51832,-0.0256 -0.77032,-0.0766 l -0.15,-0.0297 0.78595,1.5 0.0641,-0.0266 c 0.168,-0.075 0.322,-0.12093 0.475,-0.13593 l 4.40469,-0.42032 -2.275,2.96563 c -0.138,0.182 -0.30693,0.3315 -0.46093,0.4125 -0.124,0.065 -0.29125,0.053 -0.63125,-0.05 l -0.16563,-0.0484 0.89688,1.70938 z"
           id="path6388"
           inkscape:connector-curvature="0" /><path
           style="fill:#ffffff;fill-opacity:1;fill-rule:nonzero;stroke:none"
           d="m 174.54218,194.13525 1.78595,-3.81875 -1.02813,-0.48125 0.0172,0.13125 c 0.051,0.399 -0.0281,0.79525 -0.25312,1.28125 -0.113,0.24 -0.2765,0.51156 -0.5125,0.85156 l -1.39531,-0.65156 0.74062,-1.58281 -1.01405,-0.475 0.0609,0.16562 c 0.091,0.251 -0.0406,0.55806 -0.26562,1.03906 l -0.24219,0.51563 -1.80625,-0.84531 c 0.16,-0.492 0.30593,-0.88281 0.43593,-1.15781 0.306,-0.651 0.7052,-1.14413 1.2672,-1.55313 l 0.17187,-0.12344 -1.52656,-0.0547 -1.95,4.17188 0.19374,-0.10469 c 0.155,-0.084 0.29351,-0.12344 0.43751,-0.12344 0.207,0 0.41456,0.0901 0.62656,0.18907 l 3.4875,1.63281 c 0.397,0.18599 0.64256,0.32988 0.72656,0.77188 l 0.0422,0.22187 z"
           id="path6386"
           inkscape:connector-curvature="0" /><path
           style="fill:#ffffff;fill-opacity:1;fill-rule:nonzero;stroke:none"
           d="m 136.01094,186.30713 c 0.607,0 1.1,-0.48831 1.1,-1.09531 0,-0.608 -0.48519,-1.10157 -1.09219,-1.10157 -0.61,0 -1.10313,0.50257 -1.10313,1.10157 0,0.607 0.49332,1.09531 1.09532,1.09531 z"
           id="path6384"
           inkscape:connector-curvature="0" /><path
           style="fill:#ffffff;fill-opacity:1;fill-rule:nonzero;stroke:none"
           d="m 174.39687,186.30713 c 0.609,0 1.10313,-0.48831 1.10313,-1.09531 0,-0.608 -0.48775,-1.10157 -1.09375,-1.10157 -0.609,0 -1.10312,0.50257 -1.10312,1.10157 0,0.607 0.49374,1.09531 1.09374,1.09531 z"
           id="path6382"
           inkscape:connector-curvature="0" /><path
           style="fill:#ffffff;fill-opacity:1;fill-rule:nonzero;stroke:none"
           d="m 136.04844,181.49306 c 0.66722,-0.0204 1.33643,-0.28781 1.92969,-0.78281 0.727,-0.612 1.21862,-1.4805 1.46562,-2.5875 0.111,-0.488 0.1805,-1.07206 0.2125,-1.78906 l 0.003,-0.0609 -1.10313,-0.24531 0.0328,0.11406 c 0.182,0.666 0.20576,1.25737 0.0688,1.85937 -0.299,1.337 -1.19382,2.16563 -2.33282,2.16563 -0.183,0 -0.37306,-0.0221 -0.56406,-0.0641 -0.709,-0.157 -1.244,-0.54913 -1.55,-1.12813 -0.309,-0.586 -0.37069,-1.34575 -0.17969,-2.19375 0.088,-0.392 0.24075,-0.80031 0.46875,-1.24531 l 1.16718,0.2625 c 0.427,0.097 0.698,0.18387 0.875,0.59687 l 0.0891,0.20782 L 137,174.954 l -2.95313,-0.66094 -0.025,0.0563 c -0.377,0.871 -0.63281,1.62051 -0.78281,2.28751 -0.219,0.971 -0.23656,1.79305 -0.0516,2.51405 0.288,1.168 1.12988,2.04169 2.19688,2.27969 0.21924,0.0487 0.44165,0.0693 0.66406,0.0625 z"
           id="path6380"
           inkscape:connector-curvature="0" /><path
           style="fill:#ffffff;fill-opacity:1;fill-rule:nonzero;stroke:none"
           d="m 176.40938,181.48682 1.28124,-0.83126 -0.008,-0.0453 -0.78751,-4.48594 -0.0984,0.19531 c -0.203,0.407 -0.48093,0.48282 -0.91093,0.55782 l -3.79219,0.66718 c -0.479,0.084 -0.75293,0.0604 -1.03593,-0.21562 l -0.16251,-0.15782 0.72656,4.15 1.11875,-0.19687 -0.0906,-0.0984 c -0.271,-0.297 -0.432,-0.66418 -0.525,-1.19218 -0.046,-0.258 -0.0668,-0.57519 -0.0687,-0.99219 l 1.51562,-0.26563 0.30157,1.71875 1.10156,-0.19375 -0.14531,-0.1 c -0.217,-0.153 -0.28656,-0.47912 -0.37656,-1.00312 l -0.0969,-0.55937 1.9625,-0.34376 c 0.148,0.482 0.25481,0.89432 0.30781,1.19532 0.124,0.707 0.0766,1.34088 -0.14843,1.99688 l -0.0687,0.2 z"
           id="path6378"
           inkscape:connector-curvature="0" /><path
           style="fill:#ffffff;fill-opacity:1;fill-rule:nonzero;stroke:none"
           d="m 140.18594,175.09931 1.58124,-2.18749 c 0.42,-0.584 0.653,-1.1682 0.675,-1.6922 0.02,-0.514 -0.16836,-0.94068 -0.53436,-1.20468 -0.539,-0.386 -1.23138,-0.28469 -2.15938,0.34531 l -0.5625,-2.60156 c -0.071,-0.309 -0.10919,-0.71807 -0.11719,-1.21407 l -0.005,-0.20312 -0.51719,0.65468 c -0.333,0.463 -0.45212,1.04351 -0.32812,1.56251 l 0.76719,3.28125 0.0922,-0.0891 c 0.629,-0.602 1.12969,-0.89374 1.52969,-0.89374 0.173,0 0.32968,0.0525 0.47968,0.16249 0.217,0.157 0.33475,0.38876 0.34375,0.66876 0.006,0.297 -0.1105,0.61924 -0.3375,0.93124 -0.097,0.133 -0.25275,0.31025 -0.46875,0.53125 l -3.38906,-2.44843 c -0.355,-0.257 -0.568,-0.44457 -0.575,-0.90157 l -0.003,-0.21874 -1.40469,1.94374 0.20937,-0.0641 c 0.42,-0.132 0.69637,0.0191 1.03437,0.26405 l 3.12031,2.25469 c 0.355,0.258 0.56976,0.44275 0.56876,0.89375 l 0,0.225 z"
           id="path6376"
           inkscape:connector-curvature="0" /><path
           style="fill:#ffffff;fill-opacity:1;fill-rule:nonzero;stroke:none"
           d="m 175.03906,174.80869 0.95,-1.19687 -0.025,-0.0422 -2.17968,-3.99687 -0.0312,0.21875 c -0.062,0.449 -0.30138,0.60932 -0.68438,0.82032 l -3.38281,1.84062 c -0.228,0.126 -0.43381,0.22812 -0.65781,0.22812 -0.124,0 -0.25375,-0.031 -0.39375,-0.1 l -0.20156,-0.0969 1.15156,2.11718 0.0297,-0.22656 c 0.056,-0.445 0.30512,-0.61206 0.67812,-0.81406 l 3.56876,-1.94531 c 0.307,0.429 0.53724,0.77819 0.68124,1.04219 0.338,0.621 0.49888,1.25662 0.49688,1.94062 l 0,0.21094 z"
           id="path6374"
           inkscape:connector-curvature="0" /><path
           style="fill:#ffffff;fill-opacity:1;fill-rule:nonzero;stroke:none"
           d="m 209.66992,743.07031 c -0.68125,0 -1.49461,0.40157 -2.34961,1.16407 l -2.48437,2.20507 0.28515,-0.0273 c 0.555,-0.0512 0.82094,0.19375 1.17969,0.59375 l 3.19922,3.59766 c 0.36248,0.4075 0.57523,0.69515 0.45898,1.2539 l -0.0586,0.26953 2.34961,-2.09179 c 1.86,-1.6525 2.36406,-3.32289 1.35156,-4.46289 -0.63625,-0.70875 -1.60406,-0.79071 -2.78906,-0.22071 0.32501,-0.775 0.29711,-1.38922 -0.0879,-1.82422 -0.27,-0.29875 -0.63219,-0.45703 -1.05469,-0.45703 z m -0.65234,1.37891 c 0.21915,0.0208 0.41539,0.12133 0.57617,0.30273 0.22378,0.2525 0.29453,0.545 0.20703,0.875 -0.09,0.345 -0.35508,0.72219 -0.76758,1.08594 -0.165,0.15125 -0.32734,0.27897 -0.49609,0.39649 l -1.33008,-1.4961 c 0.215,-0.2675 0.39797,-0.46734 0.57422,-0.62109 0.44141,-0.39219 0.87109,-0.57772 1.23633,-0.54297 z m 2.50976,1.89844 c 0.37875,0 0.70235,0.13664 0.9336,0.40039 0.26501,0.29875 0.35039,0.66586 0.24414,1.06836 -0.11125,0.425 -0.42867,0.88086 -0.91992,1.31836 -0.18125,0.16125 -0.47727,0.38476 -0.85352,0.66601 l -1.74805,-1.9668 c 0.28625,-0.33 0.5268,-0.58515 0.7168,-0.7539 0.53375,-0.475 1.1107,-0.73242 1.62695,-0.73242 z"
           transform="matrix(0.8,0,0,-0.8,0,765.354)"
           id="path6372"
           inkscape:connector-curvature="0" /><path
           style="fill:#ffffff;fill-opacity:1;fill-rule:nonzero;stroke:none"
           d="m 144.15469,169.99462 3.52656,-2.31249 -0.625,-0.94844 -0.0547,0.12031 c -0.165,0.366 -0.4395,0.66182 -0.8875,0.95782 -0.219,0.142 -0.49881,0.28724 -0.88281,0.45624 l -0.84375,-1.28906 1.46094,-0.95625 -0.6125,-0.93593 -0.0375,0.17031 c -0.053,0.263 -0.32788,0.45531 -0.77188,0.74531 l -0.47656,0.3125 -1.09218,-1.66563 c 0.392,-0.337 0.72212,-0.58881 0.97812,-0.75781 0.6,-0.392 1.20019,-0.60225 1.89219,-0.65625 l 0.21249,-0.0156 -1.26875,-0.84687 -0.0406,0.025 -3.8125,2.49843 0.22031,0.0141 c 0.455,0.028 0.63188,0.25019 0.87188,0.61719 l 2.11406,3.21874 c 0.238,0.366 0.37194,0.61751 0.21094,1.03751 l -0.0813,0.21093 z"
           id="path6370"
           inkscape:connector-curvature="0" /><path
           style="fill:#ffffff;fill-opacity:1;fill-rule:nonzero;stroke:none"
           d="m 201.70117,747.88867 c -0.63047,-0.003 -1.30015,0.0969 -1.97265,0.29688 -1.585,0.47125 -2.78844,1.44484 -3.39844,2.74609 -0.39375,0.84 -0.47102,1.72047 -0.22852,2.54297 0.31,1.045 1.11453,1.89101 2.20703,2.32227 0.52625,0.20499 1.12274,0.3125 1.77149,0.3125 0.625,-10e-6 1.27047,-0.0991 1.91797,-0.28907 1.2675,-0.38 2.29218,-1.06875 2.96093,-2 0.75255,-1.04 1.00954,-2.22109 0.70704,-3.24609 -0.3275,-1.10375 -1.11836,-1.94625 -2.22461,-2.375 -0.51814,-0.20443 -1.10978,-0.30805 -1.74024,-0.31055 z m -0.59765,1.0586 c 1.395,0 2.5514,0.85101 2.9414,2.16601 0.48625,1.6375 -0.50476,3.22203 -2.35351,3.76953 -0.34375,0.1025 -0.69407,0.15625 -1.03907,0.15625 -1.39875,0 -2.55867,-0.85453 -2.95117,-2.17578 -0.48375,-1.63125 0.50742,-3.21226 2.35742,-3.75976 0.34375,-0.10375 0.69868,-0.15625 1.04493,-0.15625 z"
           transform="matrix(0.8,0,0,-0.8,0,765.354)"
           id="path6364"
           inkscape:connector-curvature="0" /><path
           style="fill:#ffffff;fill-opacity:1;fill-rule:nonzero;stroke:none"
           d="m 148.48594,166.96806 1.67812,-0.32031 0.0172,-0.025 3.21562,-5.02031 0.6,3.18438 c 0.083,0.429 0.109,0.71405 -0.2,1.03905 l -0.15469,0.16563 2.03595,-0.38594 -0.20469,-0.0969 c -0.407,-0.19 -0.48619,-0.46275 -0.56719,-0.89375 l -0.95312,-5.03281 -0.0734,0.0172 c -0.653,0.144 -1.00656,0.62631 -1.40156,1.24531 l -2.79688,4.33282 -0.6375,-3.37188 c -0.083,-0.433 -0.11693,-0.71587 0.18907,-1.04687 l 0.14843,-0.16251 -2.02343,0.38126 0.19843,0.0984 c 0.409,0.2 0.48775,0.47513 0.56875,0.90313 l 0.71562,3.78438 c 0.083,0.431 0.11,0.71662 -0.2,1.04062 l -0.15468,0.16406 z"
           id="path238"
           inkscape:connector-curvature="0" /></g><g
         style="fill:#175f83;fill-opacity:1"
         transform="matrix(12.686861,0,0,12.686869,-1648.3671,-1994.1956)"
         id="g6457"><g
           id="g6429"
           style="fill:#175f83;fill-opacity:1"><path
             d="m 156.8862,185.8391 c 0,0.362 -0.1,0.717 -0.283,0.99 -0.065,0.095 -0.221,0.32 -0.302,0.441 l 0.247,0.178 c 0.083,-0.111 0.229,-0.302 0.277,-0.367 0.205,-0.284 0.537,-0.49 0.905,-0.607 0.875,-0.287 1.798,0.145 2.064,0.963 0.266,0.817 -0.228,1.71 -1.103,1.995 -0.343,0.11 -0.714,0.125 -1.027,0.035 -0.111,-0.027 -0.373,-0.109 -0.513,-0.151 -0.022,0.1 -0.054,0.198 -0.094,0.291 0.132,0.046 0.359,0.127 0.434,0.151 0.333,0.107 0.635,0.358 0.859,0.673 0.542,0.744 0.415,1.756 -0.278,2.262 -0.695,0.505 -1.698,0.311 -2.239,-0.434 -0.212,-0.292 -0.34,-0.638 -0.352,-0.968 -0.006,-0.113 -0.013,-0.387 -0.015,-0.533 -0.104,0.012 -0.205,0.012 -0.305,0 -0.004,0.14 -0.009,0.38 -0.009,0.462 0.001,0.349 -0.147,0.712 -0.372,1.023 -0.543,0.746 -1.545,0.939 -2.24,0.434 -0.696,-0.505 -0.82,-1.516 -0.278,-2.262 0.213,-0.292 0.5,-0.523 0.809,-0.634 0.107,-0.041 0.367,-0.132 0.503,-0.181 l -0.052,-0.138 -0.041,-0.151 c -0.135,0.042 -0.365,0.109 -0.443,0.136 -0.333,0.106 -0.722,0.077 -1.09,-0.041 -0.873,-0.284 -1.368,-1.178 -1.102,-1.994 0.268,-0.817 1.189,-1.25 2.065,-0.965 0.343,0.111 0.651,0.317 0.854,0.575 0.071,0.087 0.237,0.307 0.325,0.421 l 0.247,-0.179 c -0.08,-0.114 -0.216,-0.311 -0.264,-0.377 -0.206,-0.284 -0.3,-0.66 -0.3,-1.048 0,-0.92 0.698,-1.666 1.556,-1.666 0.859,0 1.557,0.746 1.557,1.666 m -5.066,1.781 -0.045,0.046 -0.033,0.032 0.014,0.072 0.006,0.035 2.212,1.192 -0.007,-0.137 0,-0.078 c 0,-0.136 0.023,-0.275 0.065,-0.414 0.052,-0.158 0.13,-0.301 0.229,-0.422 l 0.085,-0.108 -2.526,-0.218 z m 2.701,2.258 c -0.134,-0.099 -0.245,-0.218 -0.33,-0.348 l -0.075,-0.114 -1.048,2.378 0.029,0.06 0.019,0.041 0.076,0.009 0.034,0.001 1.877,-1.78 -0.131,-0.035 c -0.159,-0.041 -0.31,-0.11 -0.45,-0.212 l -0.001,0 z m 0.884,-4.734 -0.058,-0.031 -0.04,-0.022 -0.065,0.038 -0.03,0.016 -0.512,2.433 0.128,-0.05 c 0.151,-0.06 0.315,-0.093 0.489,-0.093 0.167,0 0.325,0.031 0.473,0.089 l 0.126,0.046 -0.511,-2.426 z m 0.269,4.944 -0.129,0.036 1.878,1.773 0.065,-0.009 0.041,-0.006 0.035,-0.064 0.012,-0.034 -1.051,-2.385 -0.075,0.118 c -0.088,0.137 -0.202,0.26 -0.34,0.361 -0.135,0.099 -0.284,0.167 -0.436,0.21 m 0.689,-2.156 c 0.101,0.127 0.185,0.272 0.237,0.436 0.045,0.139 0.067,0.278 0.067,0.415 l -0.002,0.061 -0.008,0.141 2.21,-1.197 0.011,-0.065 0.008,-0.044 -0.056,-0.051 -0.023,-0.023 -2.533,0.222 0.089,0.105 z"
             style="fill:#175f83;fill-opacity:1;fill-rule:nonzero;stroke:none"
             id="path202"
             inkscape:connector-curvature="0" /><path
             d="m 152.7044,185.9579 -0.138,-0.007 -0.092,-0.003 c -0.242,0 -0.5,0.069 -0.732,0.17 l -0.079,0.035 -0.028,-0.083 c -0.134,-0.431 -0.25,-0.957 -0.25,-1.473 0,-0.299 0.037,-0.595 0.137,-0.867 l 0.018,-0.05 0.054,0 0.073,-0.001 c 0.753,0.001 1.549,0.428 2.112,0.835 l 0.071,0.051 -0.058,0.064 c -0.19,0.213 -0.348,0.468 -0.412,0.729 l -0.034,0.139 -0.099,-0.103 c -0.475,-0.501 -0.852,-0.786 -1.198,-1.009 0.107,0.398 0.261,0.845 0.589,1.451 l 0.066,0.122 z"
             style="fill:#175f83;fill-opacity:1;fill-rule:nonzero;stroke:none"
             id="path204"
             inkscape:connector-curvature="0" /><path
             d="m 150.688,188.9998 0.069,-0.053 0.043,0.076 c 0.143,0.248 0.338,0.477 0.567,0.617 l 0.121,0.077 -0.129,0.06 c -0.623,0.297 -1.009,0.569 -1.33,0.829 0.111,0.007 0.223,0.01 0.342,0.01 0.335,0 0.722,-0.029 1.223,-0.122 l 0.138,-0.025 -0.052,0.13 c -0.075,0.186 -0.108,0.397 -0.108,0.61 l 0.01,0.226 0.009,0.082 -0.086,0 c -0.718,-0.003 -1.649,-0.132 -2.26,-0.612 l -0.04,-0.031 0.014,-0.051 c 0.212,-0.745 0.889,-1.401 1.469,-1.823"
             style="fill:#175f83;fill-opacity:1;fill-rule:nonzero;stroke:none"
             id="path206"
             inkscape:connector-curvature="0" /><path
             d="m 157.2914,185.4946 -0.032,-0.137 c -0.065,-0.262 -0.223,-0.519 -0.415,-0.73 l -0.055,-0.065 0.068,-0.051 c 0.566,-0.404 1.362,-0.831 2.117,-0.833 l 0.072,0.001 0.052,0.003 0.019,0.047 c 0.098,0.27 0.138,0.564 0.138,0.866 0,0.514 -0.117,1.042 -0.255,1.474 l -0.026,0.082 -0.078,-0.035 c -0.232,-0.101 -0.489,-0.169 -0.731,-0.169 l -0.092,0.003 -0.143,0.01 0.068,-0.124 c 0.329,-0.609 0.484,-1.056 0.591,-1.453 -0.348,0.226 -0.723,0.51 -1.201,1.01 l -0.097,0.101 z"
             style="fill:#175f83;fill-opacity:1;fill-rule:nonzero;stroke:none"
             id="path208"
             inkscape:connector-curvature="0" /><path
             d="m 160.2718,190.6136 c 0.119,0 0.231,-0.004 0.34,-0.01 -0.323,-0.261 -0.709,-0.532 -1.333,-0.829 l -0.128,-0.06 0.122,-0.076 c 0.228,-0.141 0.425,-0.369 0.568,-0.617 l 0.043,-0.075 0.07,0.05 c 0.576,0.425 1.255,1.08 1.469,1.824 l 0.014,0.05 -0.044,0.032 c -0.61,0.481 -1.541,0.61 -2.258,0.614 l -0.089,0 0.011,-0.085 0.014,-0.227 c 0,-0.213 -0.035,-0.424 -0.108,-0.606 l -0.057,-0.133 0.14,0.026 c 0.503,0.094 0.892,0.122 1.226,0.122"
             style="fill:#175f83;fill-opacity:1;fill-rule:nonzero;stroke:none"
             id="path210"
             inkscape:connector-curvature="0" /><path
             d="m 154.8172,192.8799 0.109,-0.094 0.018,0.142 c 0.09,0.683 0.227,1.137 0.376,1.521 0.15,-0.384 0.287,-0.838 0.377,-1.521 l 0.018,-0.142 0.11,0.094 c 0.204,0.171 0.486,0.287 0.762,0.347 l 0.086,0.017 -0.028,0.083 c -0.224,0.681 -0.637,1.527 -1.281,1.96 l -0.042,0.03 -0.044,-0.03 c -0.646,-0.433 -1.056,-1.279 -1.281,-1.96 l -0.027,-0.083 0.084,-0.017 c 0.278,-0.06 0.556,-0.176 0.763,-0.347"
             style="fill:#175f83;fill-opacity:1;fill-rule:nonzero;stroke:none"
             id="path212"
             inkscape:connector-curvature="0" /></g><g
           id="g6437"
           style="fill:#175f83;fill-opacity:1"><path
             d="m 159.7014,175.1691 -0.035,0.139 -0.1,-0.102 c -0.475,-0.503 -0.849,-0.785 -1.197,-1.01 0.106,0.398 0.261,0.845 0.59,1.453 l 0.066,0.121 -0.137,-0.006 -0.093,-0.004 c -0.244,0 -0.501,0.067 -0.733,0.167 l -0.076,0.037 -0.03,-0.081 c -0.136,-0.434 -0.25,-0.959 -0.25,-1.476 0,-0.299 0.039,-0.594 0.137,-0.864 l 0.019,-0.049 0.054,0 0.072,0 c 0.753,0 1.549,0.424 2.111,0.831 l 0.072,0.052 -0.058,0.064 c -0.19,0.209 -0.347,0.467 -0.412,0.728"
             style="fill:#175f83;fill-opacity:1;fill-rule:nonzero;stroke:none"
             id="path224"
             inkscape:connector-curvature="0" /><path
             d="m 157.6877,179.4518 0.121,0.077 -0.128,0.06 c -0.623,0.296 -1.011,0.57 -1.33,0.829 0.109,0.005 0.222,0.01 0.34,0.01 0.337,0 0.722,-0.028 1.224,-0.121 l 0.138,-0.026 -0.052,0.131 c -0.075,0.184 -0.108,0.396 -0.108,0.608 l 0.012,0.225 0.008,0.084 -0.086,0 c -0.718,-0.002 -1.65,-0.132 -2.261,-0.612 l -0.04,-0.032 0.015,-0.048 c 0.213,-0.747 0.888,-1.403 1.467,-1.825 l 0.07,-0.051 0.044,0.072 c 0.142,0.248 0.337,0.478 0.566,0.619"
             style="fill:#175f83;fill-opacity:1;fill-rule:nonzero;stroke:none"
             id="path226"
             inkscape:connector-curvature="0" /><path
             d="m 165.2953,175.9644 -0.079,-0.037 c -0.232,-0.101 -0.486,-0.167 -0.73,-0.167 l -0.09,0.002 -0.143,0.012 0.066,-0.125 c 0.33,-0.61 0.482,-1.057 0.592,-1.453 -0.348,0.225 -0.725,0.507 -1.201,1.008 l -0.098,0.1 -0.032,-0.135 c -0.066,-0.262 -0.222,-0.519 -0.415,-0.73 l -0.055,-0.063 0.068,-0.051 c 0.565,-0.408 1.362,-0.832 2.114,-0.833 l 0.076,0.001 0.052,0 0.016,0.049 c 0.1,0.269 0.142,0.564 0.142,0.865 0,0.516 -0.117,1.04 -0.257,1.473 l -0.026,0.084 z"
             style="fill:#175f83;fill-opacity:1;fill-rule:nonzero;stroke:none"
             id="path228"
             inkscape:connector-curvature="0" /><path
             d="m 165.4551,181.3289 -0.086,0 0.008,-0.085 0.013,-0.226 c 0,-0.215 -0.034,-0.426 -0.109,-0.609 l -0.055,-0.13 0.143,0.024 c 0.5,0.094 0.889,0.122 1.221,0.122 0.121,0 0.232,-0.002 0.341,-0.009 -0.321,-0.262 -0.707,-0.531 -1.33,-0.83 l -0.13,-0.063 0.123,-0.074 c 0.227,-0.141 0.424,-0.368 0.568,-0.616 l 0.042,-0.076 0.069,0.053 c 0.578,0.421 1.256,1.078 1.471,1.824 l 0.012,0.048 -0.042,0.033 c -0.609,0.479 -1.542,0.611 -2.259,0.614"
             style="fill:#175f83;fill-opacity:1;fill-rule:nonzero;stroke:none"
             id="path230"
             inkscape:connector-curvature="0" /><path
             d="m 161.1385,182.691 0.109,-0.095 0.017,0.143 c 0.09,0.684 0.226,1.137 0.377,1.522 0.149,-0.385 0.287,-0.838 0.377,-1.522 l 0.018,-0.143 0.11,0.095 c 0.205,0.171 0.485,0.288 0.762,0.347 l 0.085,0.018 -0.027,0.082 c -0.225,0.682 -0.637,1.528 -1.282,1.961 l -0.042,0.028 -0.043,-0.028 c -0.646,-0.433 -1.057,-1.279 -1.282,-1.961 l -0.025,-0.082 0.082,-0.018 c 0.279,-0.059 0.557,-0.176 0.764,-0.347"
             style="fill:#175f83;fill-opacity:1;fill-rule:nonzero;stroke:none"
             id="path232"
             inkscape:connector-curvature="0" /><path
             d="m 165.0115,179.2429 c -0.342,0.109 -0.712,0.125 -1.026,0.037 -0.11,-0.03 -0.374,-0.108 -0.513,-0.15 -0.024,0.097 -0.055,0.197 -0.093,0.29 0.131,0.045 0.356,0.126 0.432,0.15 0.334,0.107 0.636,0.359 0.861,0.67 0.54,0.746 0.416,1.759 -0.28,2.265 -0.696,0.503 -1.699,0.31 -2.239,-0.435 -0.212,-0.292 -0.338,-0.637 -0.35,-0.966 -0.008,-0.113 -0.014,-0.387 -0.018,-0.533 -0.101,0.007 -0.202,0.007 -0.304,0 -0.002,0.141 -0.01,0.378 -0.01,0.461 0.003,0.35 -0.145,0.711 -0.373,1.023 -0.541,0.745 -1.542,0.94 -2.237,0.435 -0.696,-0.505 -0.82,-1.518 -0.279,-2.264 0.213,-0.292 0.502,-0.521 0.808,-0.635 0.109,-0.039 0.366,-0.13 0.506,-0.178 l -0.054,-0.14 -0.04,-0.148 c -0.136,0.039 -0.365,0.107 -0.443,0.132 -0.333,0.109 -0.722,0.082 -1.089,-0.039 -0.876,-0.283 -1.37,-1.177 -1.104,-1.996 0.268,-0.815 1.191,-1.248 2.066,-0.964 0.342,0.112 0.649,0.315 0.854,0.575 0.07,0.088 0.236,0.309 0.324,0.422 l 0.247,-0.178 c -0.08,-0.114 -0.214,-0.314 -0.264,-0.378 -0.206,-0.283 -0.3,-0.663 -0.3,-1.048 0,-0.919 0.698,-1.665 1.557,-1.665 0.859,0 1.557,0.746 1.557,1.665 0,0.365 -0.1,0.716 -0.283,0.99 -0.065,0.095 -0.22,0.32 -0.303,0.438 l 0.248,0.181 c 0.083,-0.112 0.229,-0.302 0.277,-0.366 0.205,-0.286 0.536,-0.492 0.905,-0.61 0.874,-0.285 1.797,0.146 2.064,0.964 0.267,0.818 -0.228,1.71 -1.104,1.995 m -6.88,-1.791 -0.044,0.044 -0.034,0.032 0.016,0.074 0.004,0.032 2.212,1.195 -0.005,-0.138 0,-0.078 c 0,-0.135 0.021,-0.274 0.064,-0.412 0.052,-0.16 0.128,-0.302 0.228,-0.425 l 0.086,-0.106 -2.527,-0.218 z m 2.702,2.257 c -0.134,-0.1 -0.247,-0.218 -0.331,-0.347 l -0.076,-0.116 -1.047,2.379 0.03,0.061 0.017,0.039 0.078,0.009 0.032,0.003 1.88,-1.78 -0.133,-0.035 c -0.157,-0.041 -0.31,-0.111 -0.45,-0.213 m 0.884,-4.734 -0.058,-0.031 -0.039,-0.02 -0.068,0.037 -0.03,0.016 -0.51,2.431 0.127,-0.048 c 0.152,-0.061 0.316,-0.093 0.489,-0.093 0.168,0 0.327,0.032 0.474,0.087 l 0.126,0.047 -0.511,-2.426 z m 0.269,4.943 -0.13,0.037 1.879,1.775 0.063,-0.012 0.044,-0.004 0.034,-0.065 0.012,-0.033 -1.053,-2.384 -0.073,0.116 c -0.09,0.139 -0.201,0.259 -0.342,0.361 -0.134,0.1 -0.282,0.167 -0.434,0.209 m 3.156,-2.459 -0.026,-0.021 -2.53,0.22 0.088,0.104 c 0.102,0.128 0.183,0.274 0.237,0.439 0.045,0.138 0.067,0.277 0.067,0.415 l -0.001,0.059 -0.01,0.142 2.212,-1.199 0.012,-0.064 0.007,-0.042 -0.056,-0.053 z"
             style="fill:#175f83;fill-opacity:1;fill-rule:nonzero;stroke:none"
             id="path236"
             inkscape:connector-curvature="0" /></g><use
           x="0"
           y="0"
           xlink:href="#g6437"
           id="use6455"
           transform="translate(-12.9832,0)"
           width="100%"
           height="100%"
           style="fill:#175f83;fill-opacity:1" /></g></g></g></svg>